<?xml version="1.0" standalone="no"?>
<!DOCTYPE svg PUBLIC "-//W3C//DTD SVG 20010904//EN"
 "http://www.w3.org/TR/2001/REC-SVG-20010904/DTD/svg10.dtd">
<svg version="1.0" xmlns="http://www.w3.org/2000/svg"
 width="512.000000pt" height="512.000000pt" viewBox="0 0 512.000000 512.000000"
 preserveAspectRatio="xMidYMid meet">
<metadata>
Created by potrace 1.14, written by Peter Selinger 2001-2017
</metadata>
<g transform="translate(0.000000,512.000000) scale(0.100000,-0.100000)"
fill="#000000" stroke="none">
<path d="M2443 5100 c-157 -41 -275 -133 -348 -271 -128 -244 -59 -537 165
-698 177 -127 428 -131 610 -9 250 167 318 499 153 750 -126 192 -361 284
-580 228z"/>
<path d="M3840 4268 c-26 -10 -157 -57 -290 -103 -76 -27 -119 -42 -380 -135
-80 -29 -149 -53 -155 -55 -5 -1 -19 -5 -30 -9 -64 -24 -98 -36 -170 -61 -44
-14 -109 -37 -145 -50 -36 -13 -135 -49 -220 -78 -232 -82 -546 -192 -720
-254 -85 -30 -181 -64 -212 -75 -32 -11 -58 -24 -58 -29 0 -4 9 -32 19 -61 11
-29 40 -118 66 -198 25 -80 82 -253 125 -385 43 -132 131 -402 195 -600 64
-198 127 -391 140 -430 13 -38 74 -225 135 -415 61 -190 120 -370 130 -400 10
-30 69 -210 130 -400 150 -463 174 -533 177 -523 1 4 41 136 89 293 47 157 90
299 95 315 9 35 26 90 104 345 31 102 69 228 85 280 16 52 63 208 106 345 42
138 80 266 86 285 5 19 28 94 50 165 22 72 42 139 45 150 3 11 16 56 30 100
14 44 63 206 109 360 47 154 100 330 119 390 18 61 40 133 48 160 8 28 47 156
87 285 39 129 73 242 75 250 2 8 40 134 85 279 44 145 79 265 78 266 -2 2 -14
-2 -28 -7z"/>
<path d="M4121 2630 c-103 -29 -172 -88 -220 -190 -37 -79 -36 -192 2 -271 63
-130 190 -203 334 -192 115 9 216 80 270 191 37 75 41 180 10 260 -59 155
-237 245 -396 202z"/>
<path d="M827 2615 c-32 -12 -65 -29 -75 -36 -52 -42 -83 -77 -108 -128 -25
-49 -29 -67 -29 -146 0 -78 4 -97 28 -147 31 -64 101 -131 167 -162 36 -17 64
-21 135 -21 78 1 97 4 144 29 69 36 127 96 160 165 36 78 36 193 -1 272 -73
159 -264 238 -421 174z"/>
<path d="M1580 2048 c-169 -54 -429 -136 -610 -192 -479 -149 -715 -225 -713
-231 1 -4 75 -61 165 -127 237 -173 426 -312 542 -398 55 -42 218 -161 361
-266 369 -270 718 -527 730 -537 6 -4 48 -36 95 -70 47 -34 87 -65 88 -69 2
-5 7 -8 12 -8 5 0 53 -33 107 -74 54 -41 99 -73 100 -72 2 1 -52 162 -118 357
-67 195 -123 363 -126 374 -2 11 -9 29 -13 40 -8 18 -75 212 -185 540 -24 72
-94 276 -154 455 -61 179 -111 326 -111 328 0 4 -18 -1 -170 -50z"/>
<path d="M3368 2072 c-5 -15 -54 -157 -109 -317 -54 -159 -153 -450 -219 -645
-67 -195 -123 -359 -124 -365 -2 -5 -6 -17 -9 -25 -3 -8 -40 -118 -82 -245
-42 -126 -79 -237 -82 -245 -52 -145 -77 -228 -69 -223 6 4 63 45 126 92 63
46 147 108 185 136 39 28 120 88 180 132 238 176 638 469 790 580 88 65 162
121 163 125 2 4 8 8 13 8 5 0 17 7 26 15 17 14 107 80 383 283 63 47 151 111
195 144 44 32 95 69 113 82 l33 24 -48 15 c-173 56 -1243 391 -1411 442 -43
13 -43 13 -54 -13z"/>
</g>
</svg>
